<?xml version="1.0" encoding="UTF-8" standalone="no"?>
<svg
   xmlns:dc="http://purl.org/dc/elements/1.1/"
   xmlns:cc="http://creativecommons.org/ns#"
   xmlns:rdf="http://www.w3.org/1999/02/22-rdf-syntax-ns#"
   xmlns:svg="http://www.w3.org/2000/svg"
   xmlns="http://www.w3.org/2000/svg"
   xmlns:sodipodi="http://sodipodi.sourceforge.net/DTD/sodipodi-0.dtd"
   xmlns:inkscape="http://www.inkscape.org/namespaces/inkscape"
   version="1.1"
   x="0px"
   y="0px"
   width="32px"
   height="32px"
   viewBox="0 0 32 32"
   enable-background="new 0 0 32 32"
   xml:space="preserve"
   id="svg2"
   inkscape:version="0.91 r13725"
   sodipodi:docname="Document_text_edit.svg"><defs
     id="defs3536" /><sodipodi:namedview
     pagecolor="#ffffff"
     bordercolor="#666666"
     borderopacity="1"
     objecttolerance="10"
     gridtolerance="10"
     guidetolerance="10"
     inkscape:pageopacity="0"
     inkscape:pageshadow="2"
     inkscape:window-width="1011"
     inkscape:window-height="748"
     id="namedview3534"
     showgrid="false"
     inkscape:zoom="7.375"
     inkscape:cx="16.135593"
     inkscape:cy="16"
     inkscape:window-x="63"
     inkscape:window-y="48"
     inkscape:window-maximized="0"
     inkscape:current-layer="svg2" /><metadata
     id="metadata3520"><rdf:RDF><cc:Work
         rdf:about=""><dc:format>image/svg+xml</dc:format><dc:type
           rdf:resource="http://purl.org/dc/dcmitype/StillImage" /><dc:title>PICOL Icon</dc:title><dc:date>2009-03-15</dc:date><dc:creator><cc:Agent><dc:title>Melih Bilgil</dc:title></cc:Agent></dc:creator><dc:rights><cc:Agent><dc:title>Creative Commons BY-SA</dc:title></cc:Agent></dc:rights><dc:publisher><cc:Agent><dc:title>PICOL - Pictorial Communication Language</dc:title></cc:Agent></dc:publisher><dc:identifier>http://blog.picol.org</dc:identifier><dc:source>http://blog.picol.org</dc:source><dc:language>en</dc:language><dc:subject><rdf:Bag><rdf:li>PICOL</rdf:li><rdf:li>icon</rdf:li><rdf:li>icons</rdf:li><rdf:li>sign</rdf:li><rdf:li>GUI</rdf:li><rdf:li>vector</rdf:li><rdf:li>interface</rdf:li></rdf:Bag></dc:subject><dc:description>This is one icon out of all PICOL icons</dc:description><dc:contributor><cc:Agent><dc:title>Melih Bilgil (www.lonja.de), Christopher Adjei (www.boffer.net)</dc:title></cc:Agent></dc:contributor><cc:license
           rdf:resource="http://creativecommons.org/licenses/by-sa/3.0/" /></cc:Work><cc:License
         rdf:about="http://creativecommons.org/licenses/by-sa/3.0/"><cc:permits
           rdf:resource="http://creativecommons.org/ns#Reproduction" /><cc:permits
           rdf:resource="http://creativecommons.org/ns#Distribution" /><cc:requires
           rdf:resource="http://creativecommons.org/ns#Notice" /><cc:requires
           rdf:resource="http://creativecommons.org/ns#Attribution" /><cc:permits
           rdf:resource="http://creativecommons.org/ns#DerivativeWorks" /><cc:requires
           rdf:resource="http://creativecommons.org/ns#ShareAlike" /></cc:License></rdf:RDF></metadata><g
     id="background"><rect
       fill="none"
       width="32"
       height="32"
       id="rect3523" /></g><path
     id="rect3532"
     d="m 28.000366,20.99946 -4.999904,4.999905 -3.000226,-3.000226 4.999904,-4.999904 z M 19,27.000005 l 0,-3 3,3 z m 5,-12.941 L 24,5.5840055 18.41401,-5.5e-6 5e-7,5.5e-6 l 0,31.9999995 23.9999995,0 0,-0.059 c 4.499,-0.5 7.997999,-4.309002 8,-8.941001 -0.002,-4.634 -3.501,-8.444 -8,-8.941 z m -6.002,-11.6459985 3.588,3.586999 -3.588,0 0,-3.586999 z M 2.0000005,30.000005 l 0,-28.0019995 13.9999995,0 0,6.001 6,0 0,6.0599995 c -1.752,0.194 -3.351999,0.89 -4.652,1.941 l -13.3479995,0 0,2 11.5169995,0 c -0.412,0.616 -0.743,1.289 -0.994,2 l -10.5229995,0 0,2 10.0589995,0 c -0.037,0.329 -0.059,0.661 -0.059,1 0,2.829 1.308,5.351 3.349001,7 l -15.3490005,0 z M 23,29.883006 c -3.801,-0.009 -6.876,-3.084001 -6.884997,-6.883004 0.009,-3.801 3.084001,-6.875999 6.885,-6.884999 3.799,0.009 6.874,3.084 6.883003,6.884997 -0.009,3.798999 -3.084,6.874 -6.883,6.883 z m -3,-17.883 -15.9999995,0 0,2 15.9999995,0 0,-2 z"
     inkscape:connector-curvature="0"
     style="stroke:none;stroke-opacity:1;fill:#009200;fill-opacity:1" /></svg>